<svg xmlns="http://www.w3.org/2000/svg" xmlns:xlink="http://www.w3.org/1999/xlink" viewBox="0 0 56.19 50"><defs><style>.cls-1{fill:url(#linear-gradient);}.cls-2{fill:url(#linear-gradient-2);}.cls-3{fill:url(#linear-gradient-3);}.cls-4{fill:url(#linear-gradient-4);}.cls-5{fill:url(#linear-gradient-5);}.cls-6{fill:url(#linear-gradient-6);}.cls-7{fill:url(#linear-gradient-7);}.cls-8{fill:url(#linear-gradient-8);}.cls-9{fill:url(#linear-gradient-9);}.cls-10{fill:url(#linear-gradient-10);}.cls-11{fill:url(#linear-gradient-11);}.cls-12{fill:url(#linear-gradient-12);}.cls-13{fill:url(#linear-gradient-13);}.cls-14{fill:url(#linear-gradient-14);}.cls-15{fill:url(#linear-gradient-15);}.cls-16{fill:url(#linear-gradient-16);}.cls-17{fill:url(#linear-gradient-17);}.cls-18{fill:url(#linear-gradient-18);}.cls-19{fill:url(#linear-gradient-19);}.cls-20{fill:url(#linear-gradient-20);}.cls-21{fill:url(#linear-gradient-21);}.cls-22{fill:url(#linear-gradient-22);}.cls-23{fill:url(#linear-gradient-23);}.cls-24{fill:url(#linear-gradient-24);}.cls-25{fill:url(#linear-gradient-25);}.cls-26{fill:url(#linear-gradient-26);}.cls-27{fill:url(#linear-gradient-27);}.cls-28{fill:url(#linear-gradient-28);}.cls-29{fill:url(#linear-gradient-29);}.cls-30{fill:url(#linear-gradient-30);}.cls-31{fill:url(#linear-gradient-31);}</style><linearGradient id="linear-gradient" x1="26.71" y1="0.81" x2="39.78" y2="0.81" gradientUnits="userSpaceOnUse"><stop offset="0" stop-color="#fff" stop-opacity="0.5"/><stop offset="1" stop-color="#fff"/></linearGradient><linearGradient id="linear-gradient-2" x1="23.17" y1="4.03" x2="43.25" y2="4.03" xlink:href="#linear-gradient"/><linearGradient id="linear-gradient-3" x1="21.6" y1="7.26" x2="44.83" y2="7.26" xlink:href="#linear-gradient"/><linearGradient id="linear-gradient-4" x1="20.9" y1="10.48" x2="45.45" y2="10.48" xlink:href="#linear-gradient"/><linearGradient id="linear-gradient-5" x1="20.77" y1="13.71" x2="45.55" y2="13.71" xlink:href="#linear-gradient"/><linearGradient id="linear-gradient-6" x1="21" y1="16.93" x2="45.33" y2="16.93" xlink:href="#linear-gradient"/><linearGradient id="linear-gradient-7" x1="21.82" y1="20.16" x2="44.55" y2="20.16" xlink:href="#linear-gradient"/><linearGradient id="linear-gradient-8" x1="23.25" y1="23.39" x2="43.14" y2="23.39" xlink:href="#linear-gradient"/><linearGradient id="linear-gradient-9" x1="25.29" y1="26.61" x2="41.09" y2="26.61" xlink:href="#linear-gradient"/><linearGradient id="linear-gradient-10" x1="27.12" y1="29.84" x2="39.26" y2="29.84" xlink:href="#linear-gradient"/><linearGradient id="linear-gradient-11" x1="22.55" y1="33.06" x2="43.59" y2="33.06" xlink:href="#linear-gradient"/><linearGradient id="linear-gradient-12" x1="16.3" y1="36.29" x2="50.09" y2="36.29" xlink:href="#linear-gradient"/><linearGradient id="linear-gradient-13" x1="12.09" y1="39.52" x2="54.4" y2="39.52" xlink:href="#linear-gradient"/><linearGradient id="linear-gradient-14" x1="10.25" y1="42.74" x2="56.07" y2="42.74" xlink:href="#linear-gradient"/><linearGradient id="linear-gradient-15" x1="11.08" y1="49.19" x2="55.38" y2="49.19" xlink:href="#linear-gradient"/><linearGradient id="linear-gradient-16" x1="10.08" y1="45.97" x2="56.19" y2="45.97" xlink:href="#linear-gradient"/><linearGradient id="linear-gradient-17" x1="0.25" y1="47.58" x2="45.91" y2="47.58" gradientUnits="userSpaceOnUse"><stop offset="0" stop-color="#fff" stop-opacity="0.6"/><stop offset="1" stop-color="#fff"/></linearGradient><linearGradient id="linear-gradient-18" x1="15.67" y1="31.45" x2="30.24" y2="31.45" xlink:href="#linear-gradient-17"/><linearGradient id="linear-gradient-19" x1="16.3" y1="28.23" x2="29.91" y2="28.23" xlink:href="#linear-gradient-17"/><linearGradient id="linear-gradient-20" x1="14.13" y1="25" x2="32.12" y2="25" xlink:href="#linear-gradient-17"/><linearGradient id="linear-gradient-21" x1="12.37" y1="21.77" x2="33.85" y2="21.77" xlink:href="#linear-gradient-17"/><linearGradient id="linear-gradient-22" x1="11.25" y1="18.55" x2="34.94" y2="18.55" xlink:href="#linear-gradient-17"/><linearGradient id="linear-gradient-23" x1="10.73" y1="15.32" x2="35.43" y2="15.32" xlink:href="#linear-gradient-17"/><linearGradient id="linear-gradient-24" x1="14.46" y1="2.42" x2="31.81" y2="2.42" xlink:href="#linear-gradient-17"/><linearGradient id="linear-gradient-25" x1="12.16" y1="5.64" x2="34.11" y2="5.64" xlink:href="#linear-gradient-17"/><linearGradient id="linear-gradient-26" x1="11.09" y1="8.87" x2="35.14" y2="8.87" xlink:href="#linear-gradient-17"/><linearGradient id="linear-gradient-27" x1="10.7" y1="12.1" x2="35.47" y2="12.1" xlink:href="#linear-gradient-17"/><linearGradient id="linear-gradient-28" x1="9.24" y1="34.68" x2="37.19" y2="34.68" xlink:href="#linear-gradient-17"/><linearGradient id="linear-gradient-29" x1="3.78" y1="37.9" x2="42.39" y2="37.9" xlink:href="#linear-gradient-17"/><linearGradient id="linear-gradient-30" x1="0.79" y1="41.13" x2="45.46" y2="41.13" xlink:href="#linear-gradient-17"/><linearGradient id="linear-gradient-31" x1="0" y1="44.35" x2="46.11" y2="44.35" xlink:href="#linear-gradient-17"/></defs><title>Asset 8privacy_white</title><g id="Layer_2" data-name="Layer 2"><g id="Brand_Elemnts" data-name="Brand Elemnts"><g id="Privacy"><path class="cls-1" d="M39.78,1.61H26.71a14,14,0,0,1,8-1.56A11.56,11.56,0,0,1,39.78,1.61Z"/><path class="cls-2" d="M43.25,4.84H23.17a10.34,10.34,0,0,1,1.37-1.61H41.89A11.39,11.39,0,0,1,43.25,4.84Z"/><path class="cls-3" d="M44.83,8.06H21.6a12.42,12.42,0,0,1,.64-1.61h22A11.76,11.76,0,0,1,44.83,8.06Z"/><path class="cls-4" d="M45.45,11.29H20.9a15.18,15.18,0,0,1,.27-1.61H45.23v.05C45.33,10.25,45.4,10.77,45.45,11.29Z"/><path class="cls-5" d="M20.81,14.52c0-.54,0-1.07,0-1.61H45.55c0,.54,0,1.08,0,1.61Z"/><path class="cls-6" d="M21.33,17.74c-.14-.54-.25-1.07-.34-1.61H45.33c-.08.54-.19,1.08-.31,1.61Z"/><path class="cls-7" d="M22.45,21c-.24-.54-.45-1.07-.63-1.61H44.55c-.19.54-.39,1.08-.62,1.61Z"/><path class="cls-8" d="M24.21,24.19c-.34-.53-.67-1.06-1-1.61h19.9q-.43.82-.94,1.61Z"/><path class="cls-9" d="M26.38,27.42c-.36-.54-.73-1.08-1.09-1.61h15.8c-.38.53-.77,1.06-1.1,1.61Z"/><path class="cls-10" d="M27.12,30.64A2.73,2.73,0,0,0,27.17,29H39.26a3.13,3.13,0,0,0-.07,1.61Z"/><path class="cls-11" d="M43.59,33.87h-21L24.26,33c.36-.18.73-.33,1.09-.52l.4-.23H40.32a5.61,5.61,0,0,0,1,.59C42,33.22,42.81,33.55,43.59,33.87Z"/><path class="cls-12" d="M50.09,37.1H16.3c1-.56,2-1.09,3-1.61h28l.61.32C48.62,36.21,49.37,36.64,50.09,37.1Z"/><path class="cls-13" d="M54.4,40.32H12.09a16.44,16.44,0,0,1,1.77-1.61H52.47c.51.38,1,.78,1.49,1.19C54.12,40,54.27,40.18,54.4,40.32Z"/><path class="cls-14" d="M56.07,43.55H10.25a6.32,6.32,0,0,1,.62-1.61H55.54A6.19,6.19,0,0,1,56.07,43.55Z"/><path class="cls-15" d="M55.38,48.39A6.9,6.9,0,0,1,54,50l-.06,0H12.6l-.1-.07a6.23,6.23,0,0,1-1.43-1.54Z"/><path class="cls-16" d="M56.19,45.16a9.28,9.28,0,0,1-.2,1.61H10.33a6.23,6.23,0,0,1-.25-1.61Z"/><path class="cls-17" d="M.25,46.77H45.91c0,.17-.08.35-.12.52a3.8,3.8,0,0,1-.49,1.09H1A6.15,6.15,0,0,1,.25,46.77Z"/><path class="cls-18" d="M30.24,32.26H15.67A3.19,3.19,0,0,0,17,30.64H29.11A2.89,2.89,0,0,0,30.24,32.26Z"/><path class="cls-19" d="M16.3,27.42H29.91c-.11.19-.22.37-.31.56a5.74,5.74,0,0,0-.42,1H17.09a4.49,4.49,0,0,0-.62-1.36Z"/><path class="cls-20" d="M14.13,24.19h18q-.25.39-.52.79l-.59.83H15.21C14.84,25.27,14.48,24.73,14.13,24.19Z"/><path class="cls-21" d="M12.37,21H33.85c-.23.54-.49,1.08-.78,1.61H13.16c-.12-.22-.24-.44-.35-.67S12.51,21.28,12.37,21Z"/><path class="cls-22" d="M11.25,17.74H34.94c-.13.54-.29,1.08-.46,1.61H11.74C11.55,18.82,11.39,18.28,11.25,17.74Z"/><path class="cls-23" d="M10.73,14.52h24.7c0,.54-.09,1.08-.18,1.61H10.91C10.83,15.59,10.77,15.06,10.73,14.52Z"/><path class="cls-24" d="M31.81,3.22H14.46a10.4,10.4,0,0,1,2.17-1.61H29.7A11.08,11.08,0,0,1,31.81,3.22Z"/><path class="cls-25" d="M34.11,6.45h-22a10.91,10.91,0,0,1,.93-1.61H33.17A11.4,11.4,0,0,1,34.11,6.45Z"/><path class="cls-26" d="M35.14,9.68H11.09c.11-.52.25-1,.41-1.56l0,0H34.75A11.64,11.64,0,0,1,35.14,9.68Z"/><path class="cls-27" d="M35.47,12.9H10.7a15.6,15.6,0,0,1,.12-1.61H35.37C35.43,11.83,35.46,12.37,35.47,12.9Z"/><path class="cls-28" d="M37.19,35.48h-28l3.23-1.61h21C34.75,34.38,36,34.88,37.19,35.48Z"/><path class="cls-29" d="M42.39,38.71H3.78a16.15,16.15,0,0,1,2-1.34l.48-.27H40C40.83,37.6,41.62,38.14,42.39,38.71Z"/><path class="cls-30" d="M45.46,41.94H.79a6.73,6.73,0,0,1,.91-1.29L2,40.32H44.32A6.17,6.17,0,0,1,45.46,41.94Z"/><path class="cls-31" d="M46.11,45.16H0a6.25,6.25,0,0,1,.17-1.61H46A7.39,7.39,0,0,1,46.11,45.16Z"/></g></g></g></svg>